<svg xmlns="http://www.w3.org/2000/svg" xmlns:xlink="http://www.w3.org/1999/xlink" width="512" zoomAndPan="magnify" viewBox="0 0 384 383.999986" height="512" preserveAspectRatio="xMidYMid meet" version="1.0"><defs><clipPath id="e6234dbc74"><path d="M 0.398438 62 L 185 62 L 185 296.25 L 0.398438 296.25 Z M 0.398438 62 " clip-rule="nonzero"/></clipPath><clipPath id="3ff500073e"><path d="M 29 3 L 213.324219 3 L 213.324219 237 L 29 237 Z M 29 3 " clip-rule="nonzero"/></clipPath><clipPath id="832b3c520d"><path d="M 197.25 65.558594 L 302 65.558594 L 302 232.414062 L 197.25 232.414062 Z M 197.25 65.558594 " clip-rule="nonzero"/></clipPath><clipPath id="6cbeeb65f9"><rect x="0" width="309" y="0" height="298"/></clipPath></defs><g transform="matrix(1, 0, 0, 1, 38, 43)"><g clip-path="url(#6cbeeb65f9)"><g clip-path="url(#e6234dbc74)"><path fill="#010101" d="M 154.089844 238.175781 C 154.089844 209.171875 154.089844 180.613281 154.089844 152.046875 C 153.722656 151.90625 153.351562 151.769531 152.984375 151.621094 C 137.765625 170.691406 122.539062 189.753906 106.769531 209.515625 C 101.152344 202.535156 95.777344 195.855469 89.921875 188.582031 C 61.210938 224.582031 32.730469 260.28125 4.015625 296.289062 C 2.707031 295.242188 1.65625 294.40625 0.410156 293.410156 C 61.535156 216.726562 122.433594 140.324219 184.101562 62.949219 C 184.101562 122.09375 184.101562 179.992188 184.101562 238.175781 C 174.25 238.175781 164.648438 238.175781 154.089844 238.175781 Z M 154.089844 238.175781 " fill-opacity="1" fill-rule="nonzero"/></g><g clip-path="url(#3ff500073e)"><path fill="#010101" d="M 29.445312 63.75 C 51.753906 91.71875 73.359375 118.820312 95.453125 146.523438 C 97.128906 144.511719 98.605469 142.796875 100.011719 141.035156 C 135.4375 96.566406 170.855469 52.070312 206.339844 7.640625 C 207.90625 5.6875 209.386719 1.167969 213.296875 6.3125 C 168.761719 62.183594 124.199219 118.097656 79.121094 174.65625 C 72.839844 166.890625 66.855469 159.488281 60.175781 151.234375 C 59.921875 153.40625 59.648438 154.648438 59.648438 155.898438 C 59.621094 168.789062 59.78125 181.683594 59.515625 194.570312 C 59.457031 197.21875 58.460938 200.304688 56.851562 202.390625 C 48.136719 213.753906 39.089844 224.867188 29.4375 236.964844 C 29.445312 178.914062 29.445312 121.960938 29.445312 63.75 Z M 29.445312 63.75 " fill-opacity="1" fill-rule="nonzero"/></g><g clip-path="url(#832b3c520d)"><path fill="#000000" d="M 286.167969 224 C 278.160156 228.886719 269.265625 231.3125 260.335938 232.414062 L 260.335938 230.648438 C 269.453125 225.105469 291.960938 208.054688 275.023438 181.679688 C 264.105469 164.632812 242.738281 154.863281 225.390625 145.347656 C 208.898438 136.019531 197.347656 118.53125 198.011719 100.128906 C 198.453125 86.167969 210.039062 73.53125 223.398438 68.648438 C 227.195312 67.324219 230.960938 66.441406 234.761719 65.78125 L 234.761719 67.105469 C 226.277344 70.664062 213.140625 79.960938 219.597656 101.894531 C 223.398438 114.96875 234.949219 123.164062 246.535156 129.59375 C 260.117188 136.902344 273.253906 143.773438 284.363281 154.421875 C 307.976562 176.796875 305.730469 212.46875 286.167969 224 Z M 206.460938 182.34375 C 204.691406 210.261719 218.269531 222.675781 233.398438 229.546875 L 233.398438 231.53125 C 214.25 228.664062 199.78125 222.015625 199.78125 222.015625 L 203.359375 182.34375 Z M 289.269531 114.96875 C 289.492188 89.257812 275.910156 73.3125 261.667969 66.882812 L 261.667969 65.558594 C 280.816406 68.207031 295.726562 75.519531 295.726562 75.519531 L 292.402344 114.96875 Z M 289.269531 114.96875 " fill-opacity="1" fill-rule="nonzero"/></g></g></g></svg>